<mxfile host="app.diagrams.net" modified="2023-07-01T17:19:01.405Z" agent="Mozilla/5.0 (Macintosh; Intel Mac OS X 10_15_7) AppleWebKit/605.1.15 (KHTML, like Gecko) Version/16.5.1 Safari/605.1.15" etag="Z3-B1PA8wie8kXU-Gg02" version="21.5.2" type="github">
  <diagram name="Page-1" id="e7010aeb-78dc-98c9-4316-6516fd28bfe3">
    <mxGraphModel dx="1408" dy="748" grid="1" gridSize="10" guides="1" tooltips="1" connect="1" arrows="1" fold="1" page="1" pageScale="1.5" pageWidth="1169" pageHeight="826" background="none" math="0" shadow="0">
      <root>
        <mxCell id="0" style=";html=1;" />
        <mxCell id="1" style=";html=1;" parent="0" />
        <mxCell id="260548aa2b6a5931-6" value="&lt;table border=&quot;1&quot; width=&quot;100%&quot; style=&quot;width: 100% ; height: 100% ; border-collapse: collapse&quot;&gt;&lt;tbody&gt;&lt;tr align=&quot;center&quot;&gt;&lt;th width=&quot;4%&quot;&gt;&lt;font face=&quot;Arial&quot;&gt;#&lt;br&gt;&lt;/font&gt;&lt;/th&gt;&lt;th width=&quot;12%&quot;&gt;&lt;font face=&quot;Arial&quot;&gt;Time / Period&lt;br&gt;&lt;/font&gt;&lt;/th&gt;&lt;th width=&quot;12%&quot; bgcolor=&quot;#FE4F4F&quot;&gt;&lt;font face=&quot;Arial&quot;&gt;Monday&lt;br&gt;&lt;/font&gt;&lt;/th&gt;&lt;th width=&quot;12%&quot; bgcolor=&quot;#FF954F&quot;&gt;&lt;font face=&quot;Arial&quot;&gt;Tuesday&lt;br&gt;&lt;/font&gt;&lt;/th&gt;&lt;th width=&quot;12%&quot; bgcolor=&quot;#FFFF4F&quot;&gt;&lt;font face=&quot;Arial&quot;&gt;Wednesday&lt;br&gt;&lt;/font&gt;&lt;/th&gt;&lt;th width=&quot;12%&quot; bgcolor=&quot;#4FDB4F&quot;&gt;&lt;font face=&quot;Arial&quot;&gt;Thursday&lt;br&gt;&lt;/font&gt;&lt;/th&gt;&lt;th width=&quot;12%&quot; bgcolor=&quot;#71DBFE&quot;&gt;&lt;font face=&quot;Arial&quot;&gt;Friday&lt;br&gt;&lt;/font&gt;&lt;/th&gt;&lt;th width=&quot;12%&quot; bgcolor=&quot;#4F4FDB&quot;&gt;&lt;font face=&quot;Arial&quot;&gt;Saturday&lt;br&gt;&lt;/font&gt;&lt;/th&gt;&lt;th width=&quot;12%&quot; bgcolor=&quot;#964FB8&quot;&gt;&lt;font face=&quot;Arial&quot;&gt;Sunday&lt;br&gt;&lt;/font&gt;&lt;/th&gt;&lt;/tr&gt;&lt;tr align=&quot;left&quot;&gt;&lt;td style=&quot;text-align: center&quot;&gt;1&lt;/td&gt;&lt;td&gt;&lt;/td&gt;&lt;td&gt;&lt;/td&gt;&lt;td&gt;&lt;/td&gt;&lt;td&gt;&lt;/td&gt;&lt;td&gt;&lt;/td&gt;&lt;td&gt;&lt;/td&gt;&lt;td&gt;&lt;/td&gt;&lt;td&gt;&lt;/td&gt;&lt;/tr&gt;&lt;tr align=&quot;left&quot;&gt;&lt;td style=&quot;text-align: center&quot;&gt;2&lt;/td&gt;&lt;td&gt;&lt;/td&gt;&lt;td&gt;&lt;/td&gt;&lt;td&gt;&lt;/td&gt;&lt;td&gt;&lt;/td&gt;&lt;td&gt;&lt;/td&gt;&lt;td&gt;&lt;/td&gt;&lt;td&gt;&lt;/td&gt;&lt;td&gt;&lt;/td&gt;&lt;/tr&gt;&lt;tr align=&quot;left&quot;&gt;&lt;td style=&quot;text-align: center&quot;&gt;3&lt;/td&gt;&lt;td&gt;&lt;/td&gt;&lt;td&gt;&lt;/td&gt;&lt;td&gt;&lt;/td&gt;&lt;td&gt;&lt;/td&gt;&lt;td&gt;&lt;/td&gt;&lt;td&gt;&lt;/td&gt;&lt;td&gt;&lt;/td&gt;&lt;td&gt;&lt;/td&gt;&lt;/tr&gt;&lt;tr align=&quot;left&quot;&gt;&lt;td style=&quot;text-align: center&quot;&gt;4&lt;/td&gt;&lt;td&gt;&lt;/td&gt;&lt;td&gt;&lt;/td&gt;&lt;td&gt;&lt;/td&gt;&lt;td&gt;&lt;/td&gt;&lt;td&gt;&lt;/td&gt;&lt;td&gt;&lt;/td&gt;&lt;td&gt;&lt;/td&gt;&lt;td&gt;&lt;/td&gt;&lt;/tr&gt;&lt;tr align=&quot;left&quot;&gt;&lt;td style=&quot;text-align: center&quot;&gt;5&lt;/td&gt;&lt;td&gt;&lt;/td&gt;&lt;td&gt;&lt;/td&gt;&lt;td&gt;&lt;/td&gt;&lt;td&gt;&lt;/td&gt;&lt;td&gt;&lt;/td&gt;&lt;td&gt;&lt;/td&gt;&lt;td&gt;&lt;/td&gt;&lt;td&gt;&lt;/td&gt;&lt;/tr&gt;&lt;tr align=&quot;left&quot;&gt;&lt;td style=&quot;text-align: center&quot;&gt;6&lt;/td&gt;&lt;td&gt;&lt;/td&gt;&lt;td&gt;&lt;/td&gt;&lt;td&gt;&lt;/td&gt;&lt;td&gt;&lt;/td&gt;&lt;td&gt;&lt;/td&gt;&lt;td&gt;&lt;/td&gt;&lt;td&gt;&lt;/td&gt;&lt;td&gt;&lt;/td&gt;&lt;/tr&gt;&lt;tr align=&quot;left&quot;&gt;&lt;td style=&quot;text-align: center&quot;&gt;7&lt;/td&gt;&lt;td&gt;&lt;/td&gt;&lt;td&gt;&lt;/td&gt;&lt;td&gt;&lt;/td&gt;&lt;td&gt;&lt;/td&gt;&lt;td&gt;&lt;/td&gt;&lt;td&gt;&lt;/td&gt;&lt;td&gt;&lt;/td&gt;&lt;td&gt;&lt;/td&gt;&lt;/tr&gt;&lt;tr align=&quot;left&quot;&gt;&lt;td style=&quot;text-align: center&quot;&gt;8&lt;/td&gt;&lt;td&gt;&lt;/td&gt;&lt;td&gt;&lt;/td&gt;&lt;td&gt;&lt;/td&gt;&lt;td&gt;&lt;/td&gt;&lt;td&gt;&lt;/td&gt;&lt;td&gt;&lt;/td&gt;&lt;td&gt;&lt;/td&gt;&lt;td&gt;&lt;/td&gt;&lt;/tr&gt;&lt;tr align=&quot;left&quot;&gt;&lt;td style=&quot;text-align: center&quot;&gt;9&lt;/td&gt;&lt;td&gt;&lt;/td&gt;&lt;td&gt;&lt;/td&gt;&lt;td&gt;&lt;/td&gt;&lt;td&gt;&lt;/td&gt;&lt;td&gt;&lt;/td&gt;&lt;td&gt;&lt;/td&gt;&lt;td&gt;&lt;/td&gt;&lt;td&gt;&lt;/td&gt;&lt;/tr&gt;&lt;tr align=&quot;left&quot;&gt;&lt;td style=&quot;text-align: center&quot;&gt;10&lt;/td&gt;&lt;td style=&quot;text-align: center&quot;&gt;&lt;/td&gt;&lt;td&gt;&lt;/td&gt;&lt;td&gt;&lt;/td&gt;&lt;td&gt;&lt;/td&gt;&lt;td&gt;&lt;/td&gt;&lt;td&gt;&lt;/td&gt;&lt;td&gt;&lt;/td&gt;&lt;td&gt;&lt;/td&gt;&lt;/tr&gt;&lt;tr align=&quot;left&quot;&gt;&lt;td style=&quot;text-align: center&quot;&gt;11&lt;/td&gt;&lt;td&gt;&lt;/td&gt;&lt;td&gt;&lt;/td&gt;&lt;td&gt;&lt;/td&gt;&lt;td&gt;&lt;/td&gt;&lt;td&gt;&lt;/td&gt;&lt;td&gt;&lt;/td&gt;&lt;td&gt;&lt;/td&gt;&lt;td&gt;&lt;/td&gt;&lt;/tr&gt;&lt;tr align=&quot;left&quot;&gt;&lt;td style=&quot;text-align: center&quot;&gt;12&lt;/td&gt;&lt;td&gt;&lt;/td&gt;&lt;td&gt;&lt;/td&gt;&lt;td&gt;&lt;/td&gt;&lt;td&gt;&lt;/td&gt;&lt;td&gt;&lt;/td&gt;&lt;td&gt;&lt;/td&gt;&lt;td&gt;&lt;/td&gt;&lt;td&gt;&lt;/td&gt;&lt;/tr&gt;&lt;/tbody&gt;&lt;/table&gt;" style="text;html=1;overflow=fill;strokeColor=#000000;strokeWidth=2;fillColor=#ffffff;fontSize=18;fontColor=#000000;align=center;" parent="1" vertex="1">
          <mxGeometry x="177" y="295" width="1400" height="650" as="geometry" />
        </mxCell>
        <mxCell id="260548aa2b6a5931-7" value="Weekly timetable" style="text;html=1;strokeColor=none;fillColor=none;align=center;verticalAlign=middle;whiteSpace=wrap;fontSize=36;fontColor=#000000;" parent="1" vertex="1">
          <mxGeometry x="430" y="90" width="970" height="40" as="geometry" />
        </mxCell>
      </root>
    </mxGraphModel>
  </diagram>
</mxfile>
